<?xml version="1.0" encoding="UTF-8"?>
<svg id="Layer_2" data-name="Layer 2" xmlns="http://www.w3.org/2000/svg" viewBox="0 0 1080 334.05">
  <defs>
    <style>
      .cls-1 {
        fill: #231f20;
      }
    </style>
  </defs>
  <g id="Layer_1-2" data-name="Layer 1">
    <g>
      <g>
        <path class="cls-1" d="M144.65,334.05L0,250.54V83.51L144.65,0l144.65,83.51v167.02l-144.65,83.51ZM19.1,239.51l125.54,72.48,125.55-72.48V94.54L144.65,22.06,19.1,94.54v144.97Z"/>
        <rect class="cls-1" x="67.55" y="50.03" width="19.1" height="155.99" transform="translate(-72.32 130.78) rotate(-60)"/>
        <rect class="cls-1" x="134.2" y="118.47" width="156" height="19.1" transform="translate(-35.58 123.25) rotate(-30)"/>
        <rect class="cls-1" x="135.09" y="167.02" width="19.1" height="156"/>
        <polygon class="cls-1" points="109.16 260.94 90.06 249.91 90.06 141.02 109.16 141.02 109.16 260.94"/>
        <polygon class="cls-1" points="64.13 234.94 45.03 223.91 45.03 115.03 64.13 115.03 64.13 234.94"/>
      </g>
      <g>
        <path class="cls-1" d="M385.23,206.09c-6.95-1.91-12.5-4.32-16.65-7.23l8.07-15.98c4.04,2.69,8.89,4.85,14.55,6.47,5.66,1.63,11.24,2.44,16.73,2.44,12.56,0,18.84-3.31,18.84-9.92,0-3.14-1.6-5.32-4.79-6.56-3.2-1.23-8.33-2.41-15.39-3.53-7.4-1.12-13.43-2.41-18.08-3.87-4.65-1.46-8.69-4.01-12.11-7.65-3.42-3.64-5.13-8.72-5.13-15.22,0-8.52,3.56-15.33,10.68-20.43,7.12-5.1,16.73-7.65,28.85-7.65,6.17,0,12.33.7,18.5,2.1,6.17,1.4,11.21,3.28,15.14,5.63l-8.07,15.98c-7.63-4.48-16.2-6.73-25.73-6.73-6.17,0-10.85.93-14.04,2.78-3.2,1.85-4.79,4.29-4.79,7.32,0,3.36,1.71,5.75,5.13,7.15,3.42,1.4,8.72,2.72,15.9,3.95,7.17,1.12,13.06,2.41,17.66,3.87,4.6,1.46,8.55,3.93,11.86,7.4,3.31,3.48,4.96,8.41,4.96,14.8,0,8.41-3.65,15.14-10.93,20.18-7.29,5.05-17.21,7.57-29.77,7.57-7.29,0-14.41-.95-21.36-2.86Z"/>
        <path class="cls-1" d="M536.94,126.88c6.84,6.62,10.26,16.43,10.26,29.43v51.47h-21.02v-48.77c0-7.85-1.85-13.76-5.55-17.74-3.7-3.98-8.97-5.97-15.81-5.97-7.74,0-13.85,2.33-18.33,6.98-4.49,4.65-6.73,11.35-6.73,20.1v45.41h-21.02v-124.8h21.02v45.41c3.48-3.7,7.76-6.53,12.87-8.49,5.1-1.96,10.79-2.94,17.07-2.94,11.32,0,20.41,3.31,27.25,9.92Z"/>
        <path class="cls-1" d="M603.87,169.26l-15.64,14.8v23.71h-21.02v-124.8h21.02v75.35l43.56-40.37h25.23l-37.51,37.67,41.04,52.14h-25.56l-31.12-38.51Z"/>
        <path class="cls-1" d="M682.92,203.07c-7.29-3.92-12.98-9.39-17.07-16.4-4.09-7.01-6.14-14.94-6.14-23.8s2.04-16.76,6.14-23.71c4.09-6.95,9.78-12.39,17.07-16.31,7.29-3.92,15.47-5.89,24.56-5.89s17.43,1.96,24.72,5.89c7.29,3.93,12.98,9.36,17.07,16.31,4.09,6.95,6.14,14.86,6.14,23.71s-2.05,16.79-6.14,23.8c-4.09,7.01-9.78,12.47-17.07,16.4-7.29,3.93-15.53,5.89-24.72,5.89s-17.27-1.96-24.56-5.89ZM726.65,183.22c5.05-5.16,7.57-11.94,7.57-20.35s-2.52-15.19-7.57-20.35c-5.05-5.16-11.44-7.74-19.17-7.74s-14.1,2.58-19.09,7.74c-4.99,5.16-7.48,11.94-7.48,20.35s2.49,15.19,7.48,20.35c4.99,5.16,11.35,7.74,19.09,7.74s14.13-2.58,19.17-7.74Z"/>
        <path class="cls-1" d="M772.22,82.98h21.02v124.8h-21.02v-124.8Z"/>
        <path class="cls-1" d="M882.13,126.46c7,6.34,10.51,15.89,10.51,28.68v52.64h-19.85v-10.93c-2.58,3.93-6.25,6.92-11.02,9-4.77,2.07-10.51,3.11-17.24,3.11s-12.61-1.15-17.66-3.45c-5.05-2.3-8.94-5.49-11.69-9.59-2.75-4.09-4.12-8.72-4.12-13.88,0-8.07,3-14.55,9-19.43,6-4.88,15.44-7.32,28.34-7.32h23.21v-1.35c0-6.28-1.88-11.1-5.64-14.46-3.76-3.36-9.33-5.05-16.73-5.05-5.04,0-10.01.79-14.88,2.36-4.88,1.57-9,3.76-12.36,6.56l-8.24-15.3c4.71-3.59,10.37-6.33,16.99-8.24,6.61-1.9,13.62-2.86,21.02-2.86,13.23,0,23.35,3.17,30.36,9.5ZM862.96,190.03c4.09-2.41,6.98-5.86,8.66-10.34v-10.43h-21.7c-12.11,0-18.16,3.98-18.16,11.94,0,3.81,1.51,6.84,4.54,9.08,3.03,2.24,7.23,3.36,12.61,3.36s9.95-1.2,14.04-3.62Z"/>
        <path class="cls-1" d="M913.16,205c-2.69-2.63-4.04-5.97-4.04-10.01s1.32-7.51,3.95-10.09c2.63-2.58,5.91-3.87,9.84-3.87s7.2,1.29,9.84,3.87c2.63,2.58,3.95,5.95,3.95,10.09s-1.35,7.37-4.04,10.01c-2.69,2.64-5.95,3.95-9.75,3.95s-7.06-1.32-9.76-3.95Z"/>
        <path class="cls-1" d="M1021.89,126.46c7,6.34,10.51,15.89,10.51,28.68v52.64h-19.85v-10.93c-2.58,3.93-6.25,6.92-11.02,9-4.77,2.07-10.51,3.11-17.24,3.11s-12.61-1.15-17.66-3.45c-5.05-2.3-8.94-5.49-11.69-9.59-2.75-4.09-4.12-8.72-4.12-13.88,0-8.07,3-14.55,9-19.43,6-4.88,15.44-7.32,28.34-7.32h23.21v-1.35c0-6.28-1.88-11.1-5.64-14.46-3.76-3.36-9.33-5.05-16.73-5.05-5.04,0-10.01.79-14.88,2.36-4.88,1.57-9,3.76-12.36,6.56l-8.24-15.3c4.71-3.59,10.37-6.33,16.99-8.24,6.61-1.9,13.62-2.86,21.02-2.86,13.23,0,23.35,3.17,30.36,9.5ZM1002.72,190.03c4.09-2.41,6.98-5.86,8.66-10.34v-10.43h-21.7c-12.11,0-18.16,3.98-18.16,11.94,0,3.81,1.51,6.84,4.54,9.08,3.03,2.24,7.23,3.36,12.61,3.36s9.95-1.2,14.04-3.62Z"/>
        <path class="cls-1" d="M1056.96,99.55c-2.58-2.41-3.87-5.41-3.87-9s1.29-6.59,3.87-9c2.58-2.41,5.77-3.62,9.59-3.62s7.01,1.15,9.59,3.45c2.58,2.3,3.87,5.19,3.87,8.66,0,3.7-1.26,6.81-3.78,9.33-2.52,2.52-5.75,3.78-9.67,3.78s-7.01-1.2-9.59-3.62ZM1055.95,117.96h21.02v89.81h-21.02v-89.81Z"/>
      </g>
    </g>
  </g>
</svg>